<svg viewBox="0 0 163 101" fill="none" xmlns="http://www.w3.org/2000/svg">
<path d="M33.0594 38.2586C49.1769 38.2586 62.364 51.4456 62.364 67.5631C62.364 83.6807 49.1769 96.8677 33.0594 96.8677C16.9419 96.8677 3.7548 83.6807 3.7548 67.5631C3.7548 51.4456 16.9419 38.2586 33.0594 38.2586ZM33.0594 34.8397C14.9882 34.8397 0.335938 49.492 0.335938 67.5631C0.335938 85.6343 14.9882 100.287 33.0594 100.287C51.1306 100.287 65.7828 85.6343 65.7828 67.5631C65.7828 49.492 51.2527 34.8397 33.0594 34.8397Z" fill="black"/>
<path d="M65.0502 73.6682L33.9141 67.9294C33.5478 67.6852 33.5478 67.1968 33.792 66.9526L56.9915 24.7052H105.1" stroke="black" stroke-width="3.46112" stroke-miterlimit="10" stroke-linecap="round" stroke-linejoin="round"/>
<path d="M71.2774 69.3947L53.3284 12.0065L65.9049 6.3898C65.9049 4.80247 64.9281 3.45934 63.4629 2.97093L61.3871 2.23832C60.5324 1.99411 59.6777 1.74991 58.823 1.74991H47.2233C46.0022 1.74991 44.7812 2.23832 43.8044 2.97093L43.4381 3.21514C41.6065 4.68037 41.4844 7.48872 43.1939 9.07606L44.0486 9.93077C45.2696 11.1518 46.979 11.8844 48.8106 11.8844H53.3284" stroke="black" stroke-width="3.46112" stroke-miterlimit="10" stroke-linecap="round" stroke-linejoin="round"/>
<path d="M73.3532 70.1273C76.2837 70.1273 78.6036 72.4472 78.6036 75.3777C78.6036 78.3081 76.2837 80.6281 73.3532 80.6281C70.4228 80.6281 68.1028 78.3081 68.1028 75.3777C68.1028 72.4472 70.4228 70.1273 73.3532 70.1273ZM73.3532 66.7084C68.4691 66.7084 64.5618 70.6157 64.5618 75.4998C64.5618 80.3839 68.4691 84.2912 73.3532 84.2912C78.2373 84.2912 82.1446 80.3839 82.1446 75.4998C82.1446 70.6157 78.2373 66.7084 73.3532 66.7084Z" fill="black"/>
<path d="M73.3532 75.3777L76.65 85.1459C77.5047 87.8321 80.0688 89.6637 82.9993 89.6637H87.0287" stroke="black" stroke-width="3.46112" stroke-miterlimit="10" stroke-linecap="round" stroke-linejoin="round"/>
<path d="M123.659 38.2586C139.777 38.2586 152.964 51.4456 152.964 67.5631C152.964 83.6807 139.777 96.8677 123.659 96.8677C107.542 96.8677 94.3548 83.6807 94.3548 67.5631C94.3548 51.4456 107.542 38.2586 123.659 38.2586ZM123.659 34.8397C105.588 34.8397 90.936 49.492 90.936 67.5631C90.936 85.6343 105.588 100.287 123.659 100.287C141.731 100.287 156.383 85.6343 156.383 67.5631C156.383 49.492 141.731 34.8397 123.659 34.8397Z" fill="black"/>
<path d="M123.659 67.5631L99.7273 12.617C99.1168 11.2739 100.094 9.80865 101.559 9.80865H114.624C117.921 9.80865 120.973 11.5181 122.683 14.4485C123.293 15.5475 123.415 16.8906 122.805 17.9895C121.706 20.1874 119.386 21.6526 116.944 21.6526H109.74" stroke="black" stroke-width="3.46112" stroke-miterlimit="10" stroke-linecap="round" stroke-linejoin="round"/>
<path d="M106.687 28.8566L77.9931 69.3946" stroke="black" stroke-width="3.46112" stroke-miterlimit="10" stroke-linecap="round" stroke-linejoin="round"/>
<path d="M160.412 77.9418C159.313 81.9712 157.482 85.8785 155.162 89.2974" stroke="#0085FF" stroke-width="1.73056" stroke-miterlimit="10" stroke-linecap="round" stroke-linejoin="round"/>
<path d="M141.975 34.1071C149.179 38.0143 154.918 44.2416 158.337 51.6898C159.558 54.4982 160.534 57.4286 161.145 60.4812C161.633 62.8011 161.755 65.2432 161.755 67.6852" stroke="#0085FF" stroke-width="1.73056" stroke-miterlimit="10" stroke-linecap="round" stroke-linejoin="round"/>
</svg>
