<svg viewBox="0 0 255 121" fill="none" xmlns="http://www.w3.org/2000/svg">
<path d="M170.773 14.389C172.067 16.1392 172.676 18.4982 172.676 21.6181V40.7943C172.676 41.0225 172.6 41.1747 172.447 41.2508C172.295 41.403 172.143 41.4791 171.991 41.4791H166.816C166.588 41.4791 166.436 41.403 166.36 41.2508C166.208 41.0986 166.131 40.9464 166.131 40.7943V22.0747C166.131 20.6289 165.827 19.4874 165.294 18.7265C164.686 17.8894 163.925 17.509 162.935 17.509C161.87 17.509 161.033 17.8894 160.424 18.7265C159.816 19.5635 159.511 20.6289 159.511 22.0747V40.7943C159.511 41.0225 159.435 41.1747 159.283 41.2508C159.131 41.403 158.978 41.4791 158.826 41.4791H153.652C153.423 41.4791 153.271 41.403 153.195 41.2508C153.043 41.0986 152.967 40.9464 152.967 40.7943V22.0747C152.967 20.6289 152.663 19.4874 152.054 18.7265C151.445 17.8894 150.684 17.509 149.771 17.509C148.706 17.509 147.868 17.8894 147.26 18.7265C146.651 19.5635 146.347 20.6289 146.347 22.0747V40.7943C146.347 41.0225 146.27 41.1747 146.118 41.2508C145.966 41.403 145.814 41.4791 145.662 41.4791H140.411C140.183 41.4791 140.031 41.403 139.955 41.2508C139.802 41.0986 139.726 40.9464 139.726 40.7182V12.8671C139.726 12.6388 139.802 12.4866 139.955 12.4105C140.107 12.2583 140.259 12.1822 140.411 12.1822H145.586C145.814 12.1822 145.966 12.2583 146.042 12.4105C146.194 12.5627 146.27 12.7149 146.27 12.8671V13.7803C146.27 13.8564 146.27 14.0086 146.423 14.0086C146.499 14.0846 146.575 14.0085 146.651 13.9325C147.412 13.1715 148.249 12.6388 149.238 12.2583C150.227 11.954 151.141 11.7257 152.054 11.7257C154.869 11.7257 156.924 12.9432 158.294 15.3022C158.37 15.4544 158.598 15.3783 158.826 15.15C159.587 13.9325 160.576 13.0193 161.718 12.4866C162.859 11.954 164.077 11.6496 165.218 11.6496C167.653 11.7257 169.48 12.6388 170.773 14.389ZM178.307 7.08384C177.546 6.32288 177.165 5.33363 177.165 4.1922C177.165 3.05076 177.546 2.06151 178.307 1.30055C179.068 0.539597 180.057 0.159119 181.198 0.159119C182.34 0.159119 183.329 0.539597 184.09 1.30055C184.851 2.06151 185.231 3.05076 185.231 4.1922C185.231 5.40973 184.851 6.32288 184.09 7.08384C183.329 7.84479 182.416 8.22527 181.198 8.22527C180.057 8.22527 179.068 7.84479 178.307 7.08384ZM178.155 41.2508C178.002 41.0986 177.926 40.9464 177.926 40.7943V12.9432C177.926 12.7149 178.002 12.5627 178.155 12.4866C178.307 12.3344 178.459 12.2583 178.611 12.2583H183.862C183.862 12.2583 184.242 12.3344 184.318 12.4866C184.471 12.6388 184.547 12.791 184.547 12.9432V26.8687V40.7943C184.547 41.0225 184.471 41.1747 184.318 41.2508C184.166 41.403 184.014 41.4791 183.862 41.4791H178.611C178.459 41.403 178.307 41.3269 178.155 41.2508ZM192.308 39.3484C190.482 37.6743 189.569 35.3915 189.569 32.5759V21.0094C189.569 18.1938 190.482 15.987 192.308 14.3129C194.135 12.6388 196.57 11.8018 199.69 11.8018C202.81 11.8018 205.321 12.6388 207.147 14.3129C208.973 15.987 209.887 18.0416 209.887 20.6289V21.4659C209.887 21.6942 209.81 21.8464 209.658 21.9225C209.506 21.9986 209.354 22.1508 209.202 22.1508L203.951 22.3791C203.494 22.3791 203.266 22.1508 203.266 21.6942V21.0854C203.266 20.1723 202.962 19.3353 202.277 18.5743C201.592 17.8894 200.755 17.509 199.766 17.509C198.7 17.509 197.863 17.8894 197.255 18.6504C196.646 19.4113 196.265 20.4006 196.265 21.542V32.1193C196.265 33.3369 196.57 34.25 197.255 35.011C197.939 35.7719 198.777 36.1524 199.766 36.1524C200.831 36.1524 201.668 35.7719 202.277 35.0871C202.962 34.4022 203.266 33.5652 203.266 32.5759V31.9671C203.266 31.7389 203.342 31.5867 203.494 31.5106C203.647 31.3584 203.799 31.2823 203.951 31.2823L209.202 31.3584C209.43 31.3584 209.582 31.4345 209.658 31.5867C209.81 31.7389 209.887 31.8911 209.887 32.0432V33.1086C209.887 35.7719 208.973 37.8265 207.147 39.5006C205.321 41.0986 202.81 41.9357 199.69 41.9357C196.57 41.8596 194.059 41.0225 192.308 39.3484ZM228.454 12.4105C228.758 12.6388 228.91 12.8671 228.758 13.2476L227.845 18.5743C227.769 19.0309 227.541 19.1831 227.008 18.9548C226.475 18.8026 225.943 18.7265 225.486 18.7265C225.03 18.7265 224.649 18.8026 224.193 18.8787C223.127 19.0309 222.29 19.6396 221.605 20.705C220.92 21.7703 220.616 22.9879 220.616 24.4337V40.6421C220.616 40.8704 220.54 41.0225 220.388 41.0986C220.236 41.2508 220.083 41.3269 219.931 41.3269H214.681C214.452 41.3269 214.3 41.2508 214.224 41.0986C214.072 40.9464 213.996 40.7943 213.996 40.6421V12.8671C213.996 12.6388 214.072 12.4866 214.224 12.4105C214.376 12.2583 214.528 12.1822 214.681 12.1822H219.931C220.159 12.1822 220.312 12.2583 220.388 12.4105C220.54 12.5627 220.616 12.7149 220.616 12.8671V15.5305C220.616 15.6827 220.616 15.7587 220.692 15.7587C220.768 15.7587 220.844 15.6827 220.844 15.5305C221.91 13.0193 223.584 11.8018 225.867 11.8018C227.084 11.8779 227.921 12.0301 228.454 12.4105ZM233.933 39.3484C232.106 37.6743 231.193 35.3915 231.193 32.5759V21.0854C231.193 18.2699 232.106 15.987 233.933 14.3129C235.759 12.6388 238.27 11.8018 241.39 11.8018C244.586 11.8018 247.021 12.6388 248.848 14.3129C250.674 15.987 251.587 18.2699 251.587 21.0854V32.5759C251.587 35.4675 250.674 37.6743 248.848 39.3484C247.021 41.0225 244.51 41.8596 241.314 41.8596C238.27 41.8596 235.759 41.0225 233.933 39.3484ZM243.977 35.011C244.662 34.25 244.967 33.2608 244.967 32.0432V21.542C244.967 20.3245 244.662 19.4113 243.977 18.6504C243.293 17.8894 242.455 17.509 241.39 17.509C240.325 17.509 239.488 17.8894 238.803 18.6504C238.194 19.4113 237.814 20.4006 237.814 21.6181V32.1193C237.814 33.3369 238.118 34.3261 238.803 35.0871C239.412 35.848 240.325 36.2285 241.39 36.2285C242.455 36.2285 243.369 35.6958 243.977 35.011ZM152.206 47.719H155.554C155.706 47.719 155.782 47.7951 155.859 47.8712C155.935 47.9473 156.011 48.0233 156.011 48.1755V72.8306C156.011 72.9827 155.935 73.0589 155.859 73.1349C155.782 73.211 155.706 73.2871 155.554 73.2871H152.206C152.054 73.2871 151.978 73.211 151.902 73.1349C151.825 73.0589 151.749 72.9827 151.749 72.8306V55.6329C151.749 55.5568 151.749 55.4807 151.673 55.4807C151.597 55.4807 151.597 55.5568 151.521 55.5568L148.325 61.3401C148.173 61.5684 148.097 61.6445 148.021 61.6445C147.945 61.6445 147.792 61.5684 147.716 61.3401L144.52 55.5568C144.444 55.4807 144.444 55.4807 144.368 55.4807C144.292 55.4807 144.292 55.5568 144.292 55.6329V72.8306C144.292 72.9827 144.216 73.0589 144.14 73.1349C144.064 73.211 143.988 73.2871 143.835 73.2871H140.487C140.335 73.2871 140.259 73.211 140.183 73.1349C140.107 73.0589 140.031 72.9827 140.031 72.8306V48.1755C140.031 48.0233 140.107 47.9473 140.183 47.8712C140.259 47.7951 140.335 47.719 140.487 47.719H143.835C144.064 47.719 144.292 47.7951 144.368 48.0233L147.945 54.2632C148.021 54.3393 148.097 54.3393 148.173 54.2632L151.673 48.0233C151.749 47.7951 151.978 47.719 152.206 47.719ZM161.261 71.6891C159.968 70.3955 159.359 68.7214 159.359 66.6668V54.4154C159.359 52.2847 159.968 50.6106 161.261 49.3931C162.555 48.0994 164.229 47.4907 166.284 47.4907C168.338 47.4907 170.088 48.0994 171.382 49.3931C172.676 50.6867 173.284 52.3608 173.284 54.4154V66.6668C173.284 68.7214 172.676 70.4716 171.382 71.6891C170.088 72.9827 168.414 73.5915 166.284 73.5915C164.153 73.5915 162.555 72.9067 161.261 71.6891ZM168.338 69.0258C168.871 68.417 169.099 67.7321 169.099 66.819V54.1871C169.099 53.2739 168.871 52.513 168.338 51.9803C167.806 51.3716 167.197 51.1433 166.36 51.1433C165.523 51.1433 164.838 51.4477 164.381 51.9803C163.849 52.513 163.62 53.2739 163.62 54.1871V66.819C163.62 67.7321 163.849 68.4931 164.381 69.0258C164.914 69.5584 165.523 69.8628 166.36 69.8628C167.197 69.9389 167.806 69.6345 168.338 69.0258ZM188.808 71.4608C187.514 72.6784 185.84 73.2871 183.71 73.2871H177.318C177.165 73.2871 177.089 73.211 177.013 73.1349C176.937 73.0589 176.861 72.9827 176.861 72.8306V48.1755C176.861 48.0233 176.937 47.9473 177.013 47.8712C177.089 47.7951 177.165 47.719 177.318 47.719H183.101C185.384 47.719 187.21 48.3277 188.504 49.4692C189.797 50.6106 190.482 52.3608 190.482 54.5676C190.482 57.0787 189.569 58.8289 187.819 59.8943C187.667 59.9704 187.667 60.0465 187.743 60.1226C188.656 60.7313 189.417 61.5684 189.949 62.5576C190.482 63.5469 190.786 64.7644 190.786 66.2102C190.786 68.4931 190.102 70.2433 188.808 71.4608ZM181.122 51.5238V58.2963C181.122 58.4485 181.198 58.4485 181.275 58.4485H183.101C184.09 58.4485 184.851 58.1441 185.46 57.5353C185.992 56.9266 186.297 56.0895 186.297 54.9481C186.297 53.8066 185.992 52.8935 185.46 52.2847C184.927 51.6759 184.09 51.3716 183.101 51.3716H181.275C181.122 51.3716 181.122 51.4477 181.122 51.5238ZM185.688 68.5692C186.221 67.8843 186.525 66.8951 186.525 65.6776C186.525 64.3839 186.221 63.3947 185.688 62.7098C185.155 62.025 184.394 61.6445 183.405 61.6445H181.275C181.122 61.6445 181.122 61.7206 181.122 61.7967V69.4062C181.122 69.5584 181.198 69.5584 181.275 69.5584H183.405C184.394 69.5584 185.155 69.2541 185.688 68.5692ZM193.754 51.3716C193.298 50.915 192.993 50.2301 192.993 49.5453C192.993 48.8604 193.222 48.1755 193.754 47.719C194.287 47.2624 194.896 46.958 195.581 46.958C196.265 46.958 196.95 47.1863 197.407 47.719C197.863 48.1755 198.092 48.8604 198.092 49.5453C198.092 50.2301 197.863 50.915 197.331 51.3716C196.874 51.8281 196.265 52.1325 195.504 52.1325C194.896 52.0564 194.287 51.8281 193.754 51.3716ZM193.678 73.1349C193.602 73.0589 193.526 72.9827 193.526 72.8306V55.0242C193.526 54.872 193.602 54.7959 193.678 54.7198C193.754 54.6437 193.83 54.5676 193.983 54.5676H197.331C197.483 54.5676 197.559 54.6437 197.635 54.7198C197.711 54.7959 197.787 54.872 197.787 55.0242V72.8306C197.787 72.9827 197.711 73.0589 197.635 73.1349C197.559 73.211 197.483 73.2871 197.331 73.2871H193.983C193.906 73.2871 193.754 73.211 193.678 73.1349ZM201.668 73.1349C201.592 73.0589 201.516 72.9827 201.516 72.8306V48.1755C201.516 48.0233 201.592 47.9473 201.668 47.8712C201.744 47.7951 201.82 47.719 201.973 47.719H205.321C205.473 47.719 205.549 47.7951 205.625 47.8712C205.701 47.9473 205.777 48.0233 205.777 48.1755V69.4823C205.777 69.6345 205.853 69.6345 205.93 69.6345H213.843C213.996 69.6345 214.072 69.7106 214.148 69.7867C214.224 69.8628 214.3 69.9389 214.3 70.0911V72.8306C214.3 72.9827 214.224 73.0589 214.148 73.1349C214.072 73.211 213.996 73.2871 213.843 73.2871H201.973C201.896 73.2871 201.744 73.211 201.668 73.1349ZM216.735 51.3716C216.279 50.915 215.974 50.2301 215.974 49.5453C215.974 48.8604 216.202 48.1755 216.735 47.719C217.268 47.2624 217.877 46.958 218.561 46.958C219.246 46.958 219.931 47.1863 220.388 47.719C220.844 48.1755 221.073 48.8604 221.073 49.5453C221.073 50.2301 220.844 50.915 220.312 51.3716C219.855 51.8281 219.246 52.1325 218.485 52.1325C217.877 52.0564 217.268 51.8281 216.735 51.3716ZM216.659 73.1349C216.583 73.0589 216.507 72.9827 216.507 72.8306V55.0242C216.507 54.872 216.583 54.7959 216.659 54.7198C216.735 54.6437 216.811 54.5676 216.963 54.5676H220.312C220.464 54.5676 220.54 54.6437 220.616 54.7198C220.692 54.7959 220.768 54.872 220.768 55.0242V72.8306C220.768 72.9827 220.692 73.0589 220.616 73.1349C220.54 73.211 220.464 73.2871 220.312 73.2871H216.963C216.887 73.2871 216.735 73.211 216.659 73.1349ZM237.966 47.8712C238.042 47.9473 238.118 48.0233 238.118 48.1755V50.915C238.118 51.0672 238.042 51.1433 237.966 51.2194C237.89 51.2955 237.814 51.3716 237.661 51.3716H233.02C232.867 51.3716 232.867 51.4477 232.867 51.5238V72.8306C232.867 72.9827 232.791 73.0589 232.715 73.1349C232.639 73.211 232.563 73.2871 232.411 73.2871H229.063C228.91 73.2871 228.834 73.211 228.758 73.1349C228.682 73.0589 228.606 72.9827 228.606 72.8306V51.5238C228.606 51.3716 228.53 51.3716 228.454 51.3716H224.04C223.888 51.3716 223.812 51.2955 223.736 51.2194C223.66 51.1433 223.584 51.0672 223.584 50.915V48.1755C223.584 48.0233 223.66 47.9473 223.736 47.8712C223.812 47.7951 223.888 47.719 224.04 47.719H237.661C237.738 47.719 237.89 47.7951 237.966 47.8712ZM245.423 73.1349C245.347 73.0589 245.271 72.9827 245.271 72.8306V62.862V62.6337L240.173 48.2516C240.173 48.1755 240.097 48.1755 240.097 48.0994C240.097 47.8712 240.249 47.7951 240.477 47.7951H243.977C244.282 47.7951 244.434 47.9473 244.51 48.1755L247.25 57.5353C247.25 57.6114 247.326 57.6114 247.326 57.6114C247.402 57.6114 247.402 57.6114 247.402 57.5353L250.141 48.1755C250.217 47.9473 250.369 47.7951 250.674 47.7951H254.174C254.326 47.7951 254.403 47.8712 254.479 47.9473C254.555 48.0233 254.555 48.1755 254.555 48.3277L249.456 62.7098L249.38 62.9381V72.9067C249.38 73.0588 249.304 73.1349 249.228 73.211C249.152 73.2871 249.076 73.3632 248.924 73.3632H245.575C245.575 73.211 245.499 73.211 245.423 73.1349ZM157.076 79.2226C157.228 79.0704 157.38 78.9943 157.609 78.9943H162.935C163.164 78.9943 163.316 79.0704 163.468 79.2226C163.62 79.3748 163.696 79.527 163.696 79.7553V119.553C163.696 119.782 163.62 119.934 163.468 120.086C163.316 120.238 163.164 120.314 162.935 120.314H156.772C156.391 120.314 156.087 120.086 156.011 119.706L147.26 94.67C147.184 94.5179 147.184 94.5178 147.031 94.5178C146.955 94.5178 146.879 94.594 146.879 94.7461L146.955 119.553C146.955 119.782 146.879 119.934 146.727 120.086C146.575 120.238 146.423 120.314 146.194 120.314H140.868C140.639 120.314 140.487 120.238 140.335 120.086C140.183 119.934 140.107 119.782 140.107 119.553V79.7553C140.107 79.527 140.183 79.3748 140.335 79.2226C140.487 79.0704 140.639 78.9943 140.868 78.9943H146.955C147.336 78.9943 147.64 79.2226 147.716 79.6031L156.543 104.41C156.619 104.562 156.619 104.562 156.772 104.562C156.848 104.562 156.924 104.486 156.924 104.334V79.7553C156.924 79.527 157 79.3748 157.076 79.2226ZM190.406 84.7015C190.254 84.8537 190.102 84.9298 189.873 84.9298H177.165C176.937 84.9298 176.861 85.0059 176.861 85.2342V96.3441C176.861 96.5724 176.937 96.6485 177.165 96.6485H184.699C184.927 96.6485 185.079 96.7246 185.231 96.8768C185.384 97.029 185.46 97.1812 185.46 97.4095V101.975C185.46 102.204 185.384 102.356 185.231 102.508C185.079 102.66 184.927 102.736 184.699 102.736H177.165C176.937 102.736 176.861 102.812 176.861 103.041V114.227C176.861 114.455 176.937 114.531 177.165 114.531H189.873C190.102 114.531 190.254 114.607 190.406 114.759C190.558 114.912 190.634 115.064 190.634 115.292V119.782C190.634 120.01 190.558 120.162 190.406 120.314C190.254 120.466 190.102 120.543 189.873 120.543H170.773C170.545 120.543 170.393 120.466 170.241 120.314C170.088 120.162 170.012 120.01 170.012 119.782V79.7553C170.012 79.527 170.088 79.3748 170.241 79.2226C170.393 79.0704 170.545 78.9943 170.773 78.9943H189.873C190.102 78.9943 190.254 79.0704 190.406 79.2226C190.558 79.3748 190.634 79.527 190.634 79.7553V84.2449C190.558 84.3971 190.482 84.5493 190.406 84.7015ZM201.744 119.629L193.906 79.8314L193.83 79.6031C193.83 79.2226 194.059 79.0704 194.515 79.0704H200.146C200.603 79.0704 200.907 79.2987 200.907 79.7553L205.016 104.334C205.092 104.486 205.092 104.486 205.169 104.486C205.245 104.486 205.321 104.41 205.321 104.334L209.049 79.7553C209.126 79.2987 209.354 79.0704 209.81 79.0704H214.528C214.985 79.0704 215.289 79.2987 215.289 79.7553L219.322 104.334C219.398 104.486 219.398 104.486 219.475 104.486C219.551 104.486 219.627 104.41 219.627 104.334L223.355 79.7553C223.432 79.2987 223.66 79.0704 224.116 79.0704H229.595C230.128 79.0704 230.356 79.2987 230.28 79.8314L222.823 119.629C222.747 120.086 222.518 120.238 222.062 120.238H217.04C216.583 120.238 216.279 120.01 216.279 119.629L212.322 94.5939C212.245 94.4418 212.245 94.3657 212.169 94.3657C212.093 94.3657 212.017 94.4418 212.017 94.5939L208.365 119.629C208.288 120.086 208.06 120.238 207.604 120.238H202.505C201.973 120.238 201.744 120.01 201.744 119.629ZM235.835 117.803C233.857 115.825 232.867 113.237 232.867 110.117V108.596C232.867 108.367 232.944 108.215 233.096 108.063C233.248 107.911 233.4 107.835 233.628 107.835H238.955C239.183 107.835 239.336 107.911 239.488 108.063C239.64 108.215 239.716 108.367 239.716 108.596V109.737C239.716 111.259 240.097 112.476 240.857 113.466C241.618 114.379 242.608 114.912 243.825 114.912C245.043 114.912 246.032 114.455 246.793 113.618C247.554 112.705 247.934 111.563 247.934 110.117C247.934 109.128 247.706 108.215 247.25 107.454C246.793 106.693 246.184 106.008 245.423 105.323C244.662 104.639 243.369 103.725 241.695 102.432C239.716 100.986 238.118 99.7684 236.977 98.7031C235.759 97.6378 234.77 96.2681 234.009 94.7461C233.172 93.2242 232.791 91.3979 232.791 89.3433C232.791 86.0712 233.781 83.484 235.759 81.5816C237.738 79.6792 240.325 78.6899 243.521 78.6899C246.793 78.6899 249.38 79.6792 251.435 81.7338C253.413 83.7884 254.403 86.4517 254.403 89.7999V91.2457C254.403 91.474 254.326 91.6262 254.174 91.7784C254.022 91.9306 253.87 92.0067 253.642 92.0067H248.315C248.087 92.0067 247.934 91.9306 247.782 91.7784C247.63 91.6262 247.554 91.474 247.554 91.2457V89.7238C247.554 88.2019 247.173 86.9844 246.412 86.0712C245.652 85.1581 244.662 84.7015 243.369 84.7015C242.227 84.7015 241.238 85.1581 240.477 85.9951C239.716 86.8322 239.336 87.9736 239.336 89.4955C239.336 90.9413 239.716 92.0828 240.553 93.072C241.39 94.0613 242.912 95.431 245.271 97.1051C247.63 98.8553 249.456 100.301 250.674 101.443C251.891 102.584 252.805 103.802 253.489 105.095C254.174 106.465 254.479 107.987 254.479 109.889C254.479 113.237 253.489 115.901 251.511 117.955C249.532 120.01 246.869 120.999 243.597 120.999C240.325 120.999 237.89 119.782 235.835 117.803Z" fill="#231F20"/>
<path d="M60.5464 7.34192C89.7846 7.34192 113.615 31.1719 113.615 60.4101C113.615 89.6484 89.7846 113.478 60.5464 113.478C31.3082 113.478 7.47818 89.6484 7.47818 60.4101C7.47818 31.1719 31.2237 7.34192 60.5464 7.34192ZM60.5464 0.159119C27.252 0.159119 0.29538 27.1157 0.29538 60.4101C0.29538 93.7045 27.252 120.661 60.5464 120.661C93.8408 120.661 120.797 93.7045 120.797 60.4101C120.797 27.1157 93.7563 0.159119 60.5464 0.159119Z" fill="black"/>
<path d="M34.4349 81.874C29.6182 76.0433 26.745 68.607 26.745 60.4947C26.745 41.8194 41.8712 26.7777 60.462 26.7777C79.0527 26.7777 94.1789 41.9039 94.1789 60.4947C94.1789 79.0854 79.0527 94.2116 60.462 94.2116V77.3109" stroke="black" stroke-width="7.1861" stroke-miterlimit="10" stroke-linecap="round" stroke-linejoin="round"/>
<path d="M58.4339 63.6213L62.5745 64.7198L59.5324 67.762" stroke="#0085FF" stroke-width="2.39534" stroke-miterlimit="10" stroke-linecap="round" stroke-linejoin="round"/>
<path d="M62.5745 64.7198L58.4339 63.6213L61.476 60.5792" stroke="#0085FF" stroke-width="2.39534" stroke-miterlimit="10" stroke-linecap="round" stroke-linejoin="round"/>
<path d="M76.4331 60.4102C76.4331 69.1985 69.2503 76.3813 60.4619 76.3813C51.6736 76.3813 44.5753 69.1985 44.5753 60.4102C44.5753 51.6218 76.4331 51.6218 76.4331 60.4102Z" stroke="black" stroke-width="7.1861" stroke-miterlimit="10" stroke-linecap="round" stroke-linejoin="round"/>
<path d="M51.8425 54.7484V41.3969" stroke="black" stroke-width="4.79076" stroke-miterlimit="10" stroke-linecap="round" stroke-linejoin="round"/>
<path d="M69.0813 54.7484V41.3969" stroke="black" stroke-width="4.79076" stroke-miterlimit="10" stroke-linecap="round" stroke-linejoin="round"/>
<path d="M104.066 73.7617C103.897 74.2687 103.812 74.6913 103.643 75.1983C103.474 75.7053 103.305 76.2968 103.052 76.8038C102.798 77.4799 102.46 78.2404 102.207 78.9164C101.784 79.7615 101.362 80.6065 100.939 81.4515C99.2491 84.4937 97.1365 87.1978 94.6014 89.6484" stroke="#0085FF" stroke-width="4.79076" stroke-miterlimit="10" stroke-linecap="round" stroke-linejoin="round"/>
<path d="M82.8554 21.0315C87.5876 23.3131 91.8127 26.5242 95.2774 30.4114C98.235 33.707 100.601 37.4252 102.376 41.4814C104.488 46.3826 105.587 51.7063 105.587 57.368" stroke="#0085FF" stroke-width="4.79076" stroke-miterlimit="10" stroke-linecap="round" stroke-linejoin="round"/>
</svg>
