<svg viewBox="0 0 139 111" fill="none" xmlns="http://www.w3.org/2000/svg">
<path d="M21.4343 104.513H9.34613" stroke="#0085FF" stroke-width="1.73056" stroke-miterlimit="10" stroke-linecap="round" stroke-linejoin="round"/>
<path d="M19.3585 100.85H1.40948" stroke="#0085FF" stroke-width="1.73056" stroke-miterlimit="10" stroke-linecap="round" stroke-linejoin="round"/>
<path d="M33.6445 81.5579H8.49146" stroke="#0085FF" stroke-width="1.73056" stroke-miterlimit="10" stroke-linecap="round" stroke-linejoin="round"/>
<path d="M21.4343 85.5872H6.29358" stroke="#0085FF" stroke-width="1.73056" stroke-miterlimit="10" stroke-linecap="round" stroke-linejoin="round"/>
<path d="M33.6445 108.298H8.49146" stroke="#0085FF" stroke-width="1.73056" stroke-miterlimit="10" stroke-linecap="round" stroke-linejoin="round"/>
<path d="M32.1793 82.5347C39.017 82.5347 44.5116 88.1514 44.5116 94.867C44.5116 101.705 38.8949 107.199 32.1793 107.199C25.4637 107.199 19.847 101.583 19.847 94.867C19.847 88.1514 25.3415 82.5347 32.1793 82.5347ZM32.1793 79.1158C23.3879 79.1158 16.306 86.1978 16.306 94.9891C16.306 103.781 23.3879 110.862 32.1793 110.862C40.9707 110.862 48.0526 103.781 48.0526 94.9891C48.0526 86.1978 40.9707 79.1158 32.1793 79.1158Z" fill="black"/>
<path d="M117.895 82.5347C124.733 82.5347 130.228 88.1514 130.228 94.867C130.228 101.705 124.611 107.199 117.895 107.199C111.057 107.199 105.563 101.583 105.563 94.867C105.563 88.1514 111.057 82.5347 117.895 82.5347ZM117.895 79.1158C109.104 79.1158 102.022 86.1978 102.022 94.9891C102.022 103.781 109.104 110.862 117.895 110.862C126.687 110.862 133.769 103.781 133.769 94.9891C133.769 86.1978 126.687 79.1158 117.895 79.1158Z" fill="black"/>
<path d="M117.895 94.9891L97.8704 7.68589L83.5844 2.67969" stroke="black" stroke-width="3.46112" stroke-miterlimit="10" stroke-linecap="round" stroke-linejoin="round"/>
<path d="M32.1793 95.5997H92.3758L111.546 68.0045" stroke="black" stroke-width="3.46112" stroke-miterlimit="10" stroke-linecap="round" stroke-linejoin="round"/>
<path d="M32.1793 71.3013C45.2443 71.3013 55.8672 81.9242 55.8672 94.9891" stroke="black" stroke-width="3.46112" stroke-miterlimit="10" stroke-linecap="round" stroke-linejoin="round"/>
<path d="M32.1793 89.8608C29.3709 89.8608 27.051 92.1808 27.051 94.9891C27.051 97.7975 29.3709 100.117 32.1793 100.117C34.9876 100.117 37.3076 97.7975 37.3076 94.9891C37.3076 92.0587 34.9876 89.8608 32.1793 89.8608Z" fill="black"/>
<path d="M117.895 93.2797C117.895 93.2797 118.017 93.2797 117.895 93.2797C118.628 93.2797 118.994 93.646 119.116 93.8902C119.238 94.1344 119.605 94.5007 119.483 95.1112C119.483 95.966 118.75 96.6986 117.773 96.6986H117.651C117.041 96.6986 116.674 96.3323 116.552 96.0881C116.43 95.8439 116.064 95.4776 116.186 94.867C116.308 94.0123 117.04 93.2797 117.895 93.2797ZM117.895 89.8608C115.209 89.8608 112.889 91.9366 112.767 94.6228C112.645 97.4312 114.721 99.8732 117.529 99.9953C117.651 99.9953 117.773 99.9953 117.895 99.9953C120.581 99.9953 122.901 97.9196 123.024 95.2333C123.146 92.425 121.07 89.9829 118.262 89.8608C118.139 89.8608 118.017 89.8608 117.895 89.8608Z" fill="black"/>
<path d="M134.745 103.903C135.966 101.949 136.821 99.7511 137.187 97.3091" stroke="#0085FF" stroke-width="1.73056" stroke-miterlimit="10" stroke-linecap="round" stroke-linejoin="round"/>
<path d="M125.099 76.918C130.96 78.9937 135.478 83.9999 136.943 90.105" stroke="#0085FF" stroke-width="1.73056" stroke-miterlimit="10" stroke-linecap="round" stroke-linejoin="round"/>
<path d="M71.8626 73.6212L79.555 75.697L73.9383 81.4358" stroke="#0085FF" stroke-width="3.46112" stroke-miterlimit="10" stroke-linecap="round" stroke-linejoin="round"/>
<path d="M79.555 75.697L71.8626 73.6212L77.6014 68.0045" stroke="#0085FF" stroke-width="3.46112" stroke-miterlimit="10" stroke-linecap="round" stroke-linejoin="round"/>
</svg>
